<mxfile host="app.diagrams.net" agent="Mozilla/5.0 (Windows NT 10.0; Win64; x64) AppleWebKit/537.36 (KHTML, like Gecko) Chrome/134.0.0.0 Safari/537.36 Edg/134.0.0.0" version="26.1.3">
  <diagram name="Trang-1" id="bmgDeMeZl11-xJ_JnBFE">
    <mxGraphModel dx="1107" dy="677" grid="0" gridSize="10" guides="1" tooltips="1" connect="1" arrows="1" fold="1" page="0" pageScale="1" pageWidth="827" pageHeight="1169" math="0" shadow="0">
      <root>
        <mxCell id="0" />
        <mxCell id="1" parent="0" />
        <mxCell id="2PZTh3PmtWjMT7l-G6DF-9" style="edgeStyle=orthogonalEdgeStyle;rounded=0;orthogonalLoop=1;jettySize=auto;html=1;exitX=0.5;exitY=1;exitDx=0;exitDy=0;entryX=0.5;entryY=0;entryDx=0;entryDy=0;" edge="1" parent="1" source="2PZTh3PmtWjMT7l-G6DF-1" target="2PZTh3PmtWjMT7l-G6DF-2">
          <mxGeometry relative="1" as="geometry" />
        </mxCell>
        <mxCell id="2PZTh3PmtWjMT7l-G6DF-1" value="Begin" style="rounded=1;whiteSpace=wrap;html=1;" vertex="1" parent="1">
          <mxGeometry x="400" y="40" width="120" height="60" as="geometry" />
        </mxCell>
        <mxCell id="2PZTh3PmtWjMT7l-G6DF-10" style="edgeStyle=orthogonalEdgeStyle;rounded=0;orthogonalLoop=1;jettySize=auto;html=1;exitX=0.5;exitY=1;exitDx=0;exitDy=0;entryX=0.5;entryY=0;entryDx=0;entryDy=0;" edge="1" parent="1" source="2PZTh3PmtWjMT7l-G6DF-2" target="2PZTh3PmtWjMT7l-G6DF-3">
          <mxGeometry relative="1" as="geometry" />
        </mxCell>
        <mxCell id="2PZTh3PmtWjMT7l-G6DF-2" value="Input: Mảng&amp;nbsp;&lt;div&gt;A[1...N], N phần tử&lt;/div&gt;" style="shape=parallelogram;perimeter=parallelogramPerimeter;whiteSpace=wrap;html=1;fixedSize=1;" vertex="1" parent="1">
          <mxGeometry x="360" y="130" width="200" height="60" as="geometry" />
        </mxCell>
        <mxCell id="2PZTh3PmtWjMT7l-G6DF-11" style="edgeStyle=orthogonalEdgeStyle;rounded=0;orthogonalLoop=1;jettySize=auto;html=1;exitX=0.5;exitY=1;exitDx=0;exitDy=0;entryX=0.5;entryY=0;entryDx=0;entryDy=0;" edge="1" parent="1" source="2PZTh3PmtWjMT7l-G6DF-3" target="2PZTh3PmtWjMT7l-G6DF-4">
          <mxGeometry relative="1" as="geometry" />
        </mxCell>
        <mxCell id="2PZTh3PmtWjMT7l-G6DF-3" value="i = 1" style="rounded=0;whiteSpace=wrap;html=1;" vertex="1" parent="1">
          <mxGeometry x="400" y="220" width="120" height="60" as="geometry" />
        </mxCell>
        <mxCell id="2PZTh3PmtWjMT7l-G6DF-12" style="edgeStyle=orthogonalEdgeStyle;rounded=0;orthogonalLoop=1;jettySize=auto;html=1;exitX=0.5;exitY=1;exitDx=0;exitDy=0;entryX=0.5;entryY=0;entryDx=0;entryDy=0;" edge="1" parent="1" source="2PZTh3PmtWjMT7l-G6DF-4" target="2PZTh3PmtWjMT7l-G6DF-5">
          <mxGeometry relative="1" as="geometry" />
        </mxCell>
        <mxCell id="2PZTh3PmtWjMT7l-G6DF-4" value="Tìm phần tử lớn nhất A[max] trong mảng A" style="rounded=0;whiteSpace=wrap;html=1;" vertex="1" parent="1">
          <mxGeometry x="400" y="310" width="120" height="60" as="geometry" />
        </mxCell>
        <mxCell id="2PZTh3PmtWjMT7l-G6DF-13" style="edgeStyle=orthogonalEdgeStyle;rounded=0;orthogonalLoop=1;jettySize=auto;html=1;exitX=0.5;exitY=1;exitDx=0;exitDy=0;entryX=0.5;entryY=0;entryDx=0;entryDy=0;" edge="1" parent="1" source="2PZTh3PmtWjMT7l-G6DF-5" target="2PZTh3PmtWjMT7l-G6DF-6">
          <mxGeometry relative="1" as="geometry" />
        </mxCell>
        <mxCell id="2PZTh3PmtWjMT7l-G6DF-5" value="Hoán vị A[max] và A[i]" style="rounded=0;whiteSpace=wrap;html=1;" vertex="1" parent="1">
          <mxGeometry x="400" y="400" width="120" height="60" as="geometry" />
        </mxCell>
        <mxCell id="2PZTh3PmtWjMT7l-G6DF-14" style="edgeStyle=orthogonalEdgeStyle;rounded=0;orthogonalLoop=1;jettySize=auto;html=1;exitX=0.5;exitY=1;exitDx=0;exitDy=0;entryX=0.5;entryY=0;entryDx=0;entryDy=0;" edge="1" parent="1" source="2PZTh3PmtWjMT7l-G6DF-6" target="2PZTh3PmtWjMT7l-G6DF-7">
          <mxGeometry relative="1" as="geometry" />
        </mxCell>
        <mxCell id="2PZTh3PmtWjMT7l-G6DF-15" style="edgeStyle=orthogonalEdgeStyle;rounded=0;orthogonalLoop=1;jettySize=auto;html=1;exitX=0;exitY=0.5;exitDx=0;exitDy=0;entryX=1;entryY=0.5;entryDx=0;entryDy=0;" edge="1" parent="1" source="2PZTh3PmtWjMT7l-G6DF-6" target="2PZTh3PmtWjMT7l-G6DF-8">
          <mxGeometry relative="1" as="geometry" />
        </mxCell>
        <mxCell id="2PZTh3PmtWjMT7l-G6DF-6" value="i &amp;lt; N - 1" style="rhombus;whiteSpace=wrap;html=1;" vertex="1" parent="1">
          <mxGeometry x="400" y="490" width="120" height="80" as="geometry" />
        </mxCell>
        <mxCell id="2PZTh3PmtWjMT7l-G6DF-7" value="End" style="rounded=1;whiteSpace=wrap;html=1;" vertex="1" parent="1">
          <mxGeometry x="400" y="600" width="120" height="60" as="geometry" />
        </mxCell>
        <mxCell id="2PZTh3PmtWjMT7l-G6DF-16" style="edgeStyle=orthogonalEdgeStyle;rounded=0;orthogonalLoop=1;jettySize=auto;html=1;entryX=0;entryY=0.5;entryDx=0;entryDy=0;" edge="1" parent="1" source="2PZTh3PmtWjMT7l-G6DF-8" target="2PZTh3PmtWjMT7l-G6DF-3">
          <mxGeometry relative="1" as="geometry">
            <mxPoint x="240" y="240" as="targetPoint" />
            <Array as="points">
              <mxPoint x="240" y="250" />
            </Array>
          </mxGeometry>
        </mxCell>
        <mxCell id="2PZTh3PmtWjMT7l-G6DF-8" value="i = i + 1" style="rounded=0;whiteSpace=wrap;html=1;" vertex="1" parent="1">
          <mxGeometry x="180" y="500" width="120" height="60" as="geometry" />
        </mxCell>
        <mxCell id="2PZTh3PmtWjMT7l-G6DF-17" value="Đúng" style="text;html=1;align=center;verticalAlign=middle;resizable=0;points=[];autosize=1;strokeColor=none;fillColor=none;" vertex="1" parent="1">
          <mxGeometry x="335" y="508" width="50" height="30" as="geometry" />
        </mxCell>
        <mxCell id="2PZTh3PmtWjMT7l-G6DF-18" value="Sai" style="text;html=1;align=center;verticalAlign=middle;resizable=0;points=[];autosize=1;strokeColor=none;fillColor=none;" vertex="1" parent="1">
          <mxGeometry x="460" y="570" width="40" height="30" as="geometry" />
        </mxCell>
      </root>
    </mxGraphModel>
  </diagram>
</mxfile>
